<svg xmlns="http://www.w3.org/2000/svg" width="1280" height="1320" viewBox="0 0 1280 1320" role="img" aria-labelledby="title desc">
<title id="title">Xóa sản phẩm — xác nhận và DELETE</title>
<desc id="desc">Luồng FE và BE. Hình bo tròn: bắt đầu/kết thúc. Hình chữ nhật: xử lý. Hình thoi: điều kiện. Mũi tên nét liền: thứ tự xử lý.</desc>
<defs><marker id="arrow" markerWidth="9" markerHeight="9" refX="8" refY="4.5" orient="auto"><path d="M0,0 L9,4.5 L0,9 Z" fill="#334155"/></marker></defs>
<rect width="100%" height="100%" fill="#fff"/>
<text x="640" y="32" text-anchor="middle" font-family="sans-serif" font-size="23" font-weight="700" fill="#0f172a">Xóa sản phẩm — xác nhận và DELETE</text>
<path d="M620.0,120 L620.0,165" fill="none" stroke="#334155" stroke-width="2" marker-end="url(#arrow)"/>
<path d="M440,235.0 L350,230.0" fill="none" stroke="#334155" stroke-width="2" marker-end="url(#arrow)"/>
<text x="355" y="228" font-family="sans-serif" font-size="16" fill="#0f172a" paint-order="stroke" stroke="#fff" stroke-width="5" stroke-linejoin="round">Không</text>
<path d="M620.0,305 L620.0,355" fill="none" stroke="#334155" stroke-width="2" marker-end="url(#arrow)"/>
<text x="650" y="335" font-family="sans-serif" font-size="16" fill="#0f172a" paint-order="stroke" stroke="#fff" stroke-width="5" stroke-linejoin="round">Có</text>
<path d="M620.0,445 L620.0,495" fill="none" stroke="#334155" stroke-width="2" marker-end="url(#arrow)"/>
<path d="M800,565.0 L925,567.5" fill="none" stroke="#334155" stroke-width="2" marker-end="url(#arrow)"/>
<text x="840" y="560" font-family="sans-serif" font-size="16" fill="#0f172a" paint-order="stroke" stroke="#fff" stroke-width="5" stroke-linejoin="round">Không</text>
<path d="M620.0,635 L620.0,685" fill="none" stroke="#334155" stroke-width="2" marker-end="url(#arrow)"/>
<text x="650" y="665" font-family="sans-serif" font-size="16" fill="#0f172a" paint-order="stroke" stroke="#fff" stroke-width="5" stroke-linejoin="round">Có</text>
<path d="M620.0,775 L620.0,825" fill="none" stroke="#334155" stroke-width="2" marker-end="url(#arrow)"/>
<path d="M440,895.0 L350,900.0" fill="none" stroke="#334155" stroke-width="2" marker-end="url(#arrow)"/>
<text x="355" y="885" font-family="sans-serif" font-size="16" fill="#0f172a" paint-order="stroke" stroke="#fff" stroke-width="5" stroke-linejoin="round">Không</text>
<path d="M620.0,965 L620.0,1020" fill="none" stroke="#334155" stroke-width="2" marker-end="url(#arrow)"/>
<text x="650" y="998" font-family="sans-serif" font-size="16" fill="#0f172a" paint-order="stroke" stroke="#fff" stroke-width="5" stroke-linejoin="round">Có</text>
<path d="M620.0,1140 L620.0,1210" fill="none" stroke="#334155" stroke-width="2" marker-end="url(#arrow)"/>
<path d="M65,230.0 L30,230 L30,1245 L440,1245.0" fill="none" stroke="#334155" stroke-width="2" marker-end="url(#arrow)"/>
<path d="M207.5,975 L207,1175 L365,1175 L365,1245 L440,1245.0" fill="none" stroke="#334155" stroke-width="2" marker-end="url(#arrow)"/>
<path d="M1067.5,635 L1067,1245 L800,1245.0" fill="none" stroke="#334155" stroke-width="2" marker-end="url(#arrow)"/>
<rect x="440" y="60" width="360" height="60" rx="30.0" fill="#dbeafe" stroke="#475569" stroke-width="2"/>
<text x="620.0" y="90.0" dominant-baseline="middle" text-anchor="middle" font-family="sans-serif" font-size="17" fill="#0f172a">Bấm Xóa đúng ID/tên</text>
<polygon points="620.0,165 800,235.0 620.0,305 440,235.0" fill="#fef3c7" stroke="#475569" stroke-width="2"/>
<text x="620.0" y="235.0" dominant-baseline="middle" text-anchor="middle" font-family="sans-serif" font-size="17" fill="#0f172a">Người dùng xác nhận?</text>
<rect x="65" y="170" width="285" height="120" rx="8" fill="#f1f5f9" stroke="#475569" stroke-width="2"/>
<text x="207.5" y="218.0" dominant-baseline="middle" text-anchor="middle" font-family="sans-serif" font-size="17" fill="#0f172a">Cancel: không DELETE</text>
<text x="207.5" y="242.0" dominant-baseline="middle" text-anchor="middle" font-family="sans-serif" font-size="17" fill="#0f172a">Giữ UI/DB nguyên trạng</text>
<rect x="440" y="355" width="360" height="90" rx="8" fill="#f1f5f9" stroke="#475569" stroke-width="2"/>
<text x="620.0" y="388.0" dominant-baseline="middle" text-anchor="middle" font-family="sans-serif" font-size="17" fill="#0f172a">Khóa nút, chặn gửi lặp</text>
<text x="620.0" y="412.0" dominant-baseline="middle" text-anchor="middle" font-family="sans-serif" font-size="17" fill="#0f172a">DELETE đúng ID; không body</text>
<polygon points="620.0,495 800,565.0 620.0,635 440,565.0" fill="#fef3c7" stroke="#475569" stroke-width="2"/>
<text x="620.0" y="565.0" dominant-baseline="middle" text-anchor="middle" font-family="sans-serif" font-size="17" fill="#0f172a">BE tìm thấy sản phẩm?</text>
<rect x="925" y="500" width="285" height="135" rx="8" fill="#fee2e2" stroke="#475569" stroke-width="2"/>
<text x="1067.5" y="543.5" dominant-baseline="middle" text-anchor="middle" font-family="sans-serif" font-size="17" fill="#0f172a">404: không còn tồn tại</text>
<text x="1067.5" y="567.5" dominant-baseline="middle" text-anchor="middle" font-family="sans-serif" font-size="17" fill="#0f172a">Thông báo riêng</text>
<text x="1067.5" y="591.5" dominant-baseline="middle" text-anchor="middle" font-family="sans-serif" font-size="17" fill="#0f172a">Refresh / về danh sách</text>
<rect x="440" y="685" width="360" height="90" rx="8" fill="#f1f5f9" stroke="#475569" stroke-width="2"/>
<text x="620.0" y="718.0" dominant-baseline="middle" text-anchor="middle" font-family="sans-serif" font-size="17" fill="#0f172a">BE xóa thật bản ghi products</text>
<text x="620.0" y="742.0" dominant-baseline="middle" text-anchor="middle" font-family="sans-serif" font-size="17" fill="#0f172a">Giữ categories/sản phẩm khác</text>
<polygon points="620.0,825 800,895.0 620.0,965 440,895.0" fill="#fef3c7" stroke="#475569" stroke-width="2"/>
<text x="620.0" y="895.0" dominant-baseline="middle" text-anchor="middle" font-family="sans-serif" font-size="17" fill="#0f172a">Nhận HTTP 204?</text>
<rect x="65" y="825" width="285" height="150" rx="8" fill="#fee2e2" stroke="#475569" stroke-width="2"/>
<text x="207.5" y="864.0" dominant-baseline="middle" text-anchor="middle" font-family="sans-serif" font-size="17" fill="#0f172a">500 / mạng / status sai</text>
<text x="207.5" y="888.0" dominant-baseline="middle" text-anchor="middle" font-family="sans-serif" font-size="17" fill="#0f172a">Chưa xác nhận kết quả xóa</text>
<text x="207.5" y="912.0" dominant-baseline="middle" text-anchor="middle" font-family="sans-serif" font-size="17" fill="#0f172a">Giữ UI; không retry</text>
<text x="207.5" y="936.0" dominant-baseline="middle" text-anchor="middle" font-family="sans-serif" font-size="17" fill="#0f172a">DB có thể đã xóa</text>
<rect x="440" y="1020" width="360" height="120" rx="8" fill="#dcfce7" stroke="#475569" stroke-width="2"/>
<text x="620.0" y="1044.0" dominant-baseline="middle" text-anchor="middle" font-family="sans-serif" font-size="17" fill="#0f172a">204 không parse JSON</text>
<text x="620.0" y="1068.0" dominant-baseline="middle" text-anchor="middle" font-family="sans-serif" font-size="17" fill="#0f172a">Xóa sản phẩm thành công</text>
<text x="620.0" y="1092.0" dominant-baseline="middle" text-anchor="middle" font-family="sans-serif" font-size="17" fill="#0f172a">List: GET trang hiện tại</text>
<text x="620.0" y="1116.0" dominant-baseline="middle" text-anchor="middle" font-family="sans-serif" font-size="17" fill="#0f172a">Detail: về /products</text>
<rect x="440" y="1210" width="360" height="70" rx="35.0" fill="#dbeafe" stroke="#475569" stroke-width="2"/>
<text x="620.0" y="1245.0" dominant-baseline="middle" text-anchor="middle" font-family="sans-serif" font-size="17" fill="#0f172a">Bỏ busy, mở nút còn tồn tại</text>
</svg>
